<mxfile host="app.diagrams.net" modified="2020-07-28T00:43:28.533Z" agent="5.0 (Windows NT 6.1; Win64; x64) AppleWebKit/537.36 (KHTML, like Gecko) Chrome/84.0.4147.89 Safari/537.36" etag="kT3sK28E9E-2oNdfMojF" version="13.5.3" type="github">
  <diagram name="Page-1" id="0783ab3e-0a74-02c8-0abd-f7b4e66b4bec">
    <mxGraphModel dx="1108" dy="482" grid="1" gridSize="10" guides="1" tooltips="1" connect="1" arrows="1" fold="1" page="1" pageScale="1" pageWidth="850" pageHeight="1100" background="#ffffff" math="0" shadow="0">
      <root>
        <mxCell id="0" />
        <mxCell id="1" parent="0" />
        <mxCell id="1c1d494c118603dd-1" value="Quản lý đơn hàng" style="swimlane;html=1;childLayout=stackLayout;startSize=20;rounded=0;shadow=0;comic=0;labelBackgroundColor=none;strokeWidth=1;fontFamily=Verdana;fontSize=12;align=center;" parent="1" vertex="1">
          <mxGeometry x="40" y="70" width="750" height="1050" as="geometry" />
        </mxCell>
        <mxCell id="1c1d494c118603dd-2" value="Admin" style="swimlane;html=1;startSize=20;" parent="1c1d494c118603dd-1" vertex="1">
          <mxGeometry y="20" width="250" height="1030" as="geometry" />
        </mxCell>
        <mxCell id="1c1d494c118603dd-34" style="edgeStyle=none;rounded=0;html=1;labelBackgroundColor=none;startArrow=none;startFill=0;startSize=5;endArrow=classicThin;endFill=1;endSize=5;jettySize=auto;orthogonalLoop=1;strokeWidth=1;fontFamily=Verdana;fontSize=12;exitX=0;exitY=0.5;exitDx=0;exitDy=0;" parent="1c1d494c118603dd-2" source="sxj9oRbfzUP2B1BUHPAl-5" edge="1">
          <mxGeometry relative="1" as="geometry">
            <mxPoint x="420" y="298" as="targetPoint" />
            <Array as="points" />
          </mxGeometry>
        </mxCell>
        <mxCell id="sxj9oRbfzUP2B1BUHPAl-42" value="" style="endArrow=classic;html=1;" parent="1c1d494c118603dd-2" edge="1">
          <mxGeometry width="50" height="50" relative="1" as="geometry">
            <mxPoint x="10" y="80" as="sourcePoint" />
            <mxPoint x="89" y="670" as="targetPoint" />
            <Array as="points">
              <mxPoint x="10" y="670" />
            </Array>
          </mxGeometry>
        </mxCell>
        <mxCell id="60571a20871a0731-4" value="" style="ellipse;whiteSpace=wrap;html=1;rounded=0;shadow=0;comic=0;labelBackgroundColor=none;strokeWidth=1;fillColor=#000000;fontFamily=Verdana;fontSize=12;align=center;" parent="1c1d494c118603dd-2" vertex="1">
          <mxGeometry x="100" y="50" width="40" height="40" as="geometry" />
        </mxCell>
        <mxCell id="sxj9oRbfzUP2B1BUHPAl-25" value="chọn có hoặc không" style="rounded=0;whiteSpace=wrap;html=1;" parent="1c1d494c118603dd-2" vertex="1">
          <mxGeometry x="90" y="350" width="95" height="60" as="geometry" />
        </mxCell>
        <mxCell id="1c1d494c118603dd-27" style="edgeStyle=orthogonalEdgeStyle;rounded=0;html=1;labelBackgroundColor=none;startArrow=none;startFill=0;startSize=5;endArrow=classicThin;endFill=1;endSize=5;jettySize=auto;orthogonalLoop=1;strokeWidth=1;fontFamily=Verdana;fontSize=12" parent="1c1d494c118603dd-2" source="60571a20871a0731-4" edge="1">
          <mxGeometry relative="1" as="geometry">
            <mxPoint x="120" y="140" as="targetPoint" />
          </mxGeometry>
        </mxCell>
        <mxCell id="sxj9oRbfzUP2B1BUHPAl-43" value="chọn đơn hàng muốn xóa" style="rounded=0;whiteSpace=wrap;html=1;" parent="1c1d494c118603dd-2" vertex="1">
          <mxGeometry x="90" y="660" width="120" height="60" as="geometry" />
        </mxCell>
        <mxCell id="sxj9oRbfzUP2B1BUHPAl-48" value="chọn có hoặc không" style="rounded=0;whiteSpace=wrap;html=1;" parent="1c1d494c118603dd-2" vertex="1">
          <mxGeometry x="90" y="740" width="120" height="60" as="geometry" />
        </mxCell>
        <mxCell id="w1o0xXuSSVsUYX1eWn13-1" value="chọn đơn hàng muốn sửa" style="rounded=0;whiteSpace=wrap;html=1;" vertex="1" parent="1c1d494c118603dd-2">
          <mxGeometry x="80" y="140" width="120" height="30" as="geometry" />
        </mxCell>
        <mxCell id="w1o0xXuSSVsUYX1eWn13-3" value="nhập thông tin cần sửa" style="rounded=0;whiteSpace=wrap;html=1;" vertex="1" parent="1c1d494c118603dd-2">
          <mxGeometry x="80" y="220" width="110" height="30" as="geometry" />
        </mxCell>
        <mxCell id="1c1d494c118603dd-28" style="edgeStyle=orthogonalEdgeStyle;rounded=0;html=1;entryX=0.5;entryY=0;labelBackgroundColor=none;startArrow=none;startFill=0;startSize=5;endArrow=classicThin;endFill=1;endSize=5;jettySize=auto;orthogonalLoop=1;strokeWidth=1;fontFamily=Verdana;fontSize=12" parent="1c1d494c118603dd-1" target="60571a20871a0731-3" edge="1">
          <mxGeometry relative="1" as="geometry">
            <Array as="points">
              <mxPoint x="354" y="145" />
            </Array>
            <mxPoint x="120" y="160" as="sourcePoint" />
          </mxGeometry>
        </mxCell>
        <mxCell id="1c1d494c118603dd-29" style="edgeStyle=orthogonalEdgeStyle;rounded=0;html=1;exitX=0.75;exitY=1;labelBackgroundColor=none;startArrow=none;startFill=0;startSize=5;endArrow=classicThin;endFill=1;endSize=5;jettySize=auto;orthogonalLoop=1;strokeWidth=1;fontFamily=Verdana;fontSize=12" parent="1c1d494c118603dd-1" source="60571a20871a0731-3" edge="1">
          <mxGeometry relative="1" as="geometry">
            <Array as="points">
              <mxPoint x="390" y="210" />
              <mxPoint x="595" y="210" />
            </Array>
            <mxPoint x="595" y="228" as="targetPoint" />
          </mxGeometry>
        </mxCell>
        <mxCell id="1c1d494c118603dd-30" style="edgeStyle=orthogonalEdgeStyle;rounded=0;html=1;exitX=0.25;exitY=1;entryX=0.5;entryY=0;labelBackgroundColor=none;startArrow=none;startFill=0;startSize=5;endArrow=classicThin;endFill=1;endSize=5;jettySize=auto;orthogonalLoop=1;strokeWidth=1;fontFamily=Verdana;fontSize=12" parent="1c1d494c118603dd-1" source="60571a20871a0731-3" edge="1">
          <mxGeometry relative="1" as="geometry">
            <Array as="points">
              <mxPoint x="317" y="210" />
              <mxPoint x="140" y="210" />
            </Array>
            <mxPoint x="140" y="240" as="targetPoint" />
          </mxGeometry>
        </mxCell>
        <mxCell id="sxj9oRbfzUP2B1BUHPAl-4" style="edgeStyle=orthogonalEdgeStyle;rounded=0;orthogonalLoop=1;jettySize=auto;html=1;" parent="1c1d494c118603dd-1" edge="1">
          <mxGeometry relative="1" as="geometry">
            <mxPoint x="190" y="255" as="sourcePoint" />
            <mxPoint x="545" y="243" as="targetPoint" />
          </mxGeometry>
        </mxCell>
        <mxCell id="1c1d494c118603dd-35" style="edgeStyle=none;rounded=0;html=1;labelBackgroundColor=none;startArrow=none;startFill=0;startSize=5;endArrow=classicThin;endFill=1;endSize=5;jettySize=auto;orthogonalLoop=1;strokeWidth=1;fontFamily=Verdana;fontSize=12;exitX=0;exitY=0.5;exitDx=0;exitDy=0;entryX=0.5;entryY=1;entryDx=0;entryDy=0;" parent="1c1d494c118603dd-1" source="sxj9oRbfzUP2B1BUHPAl-8" edge="1">
          <mxGeometry relative="1" as="geometry">
            <mxPoint x="162.72727272727275" y="330" as="sourcePoint" />
            <mxPoint x="140" y="270" as="targetPoint" />
            <Array as="points">
              <mxPoint x="140" y="310" />
            </Array>
          </mxGeometry>
        </mxCell>
        <mxCell id="1c1d494c118603dd-3" value="Hiển thị" style="swimlane;html=1;startSize=20;" parent="1c1d494c118603dd-1" vertex="1">
          <mxGeometry x="250" y="20" width="250" height="1030" as="geometry" />
        </mxCell>
        <mxCell id="sxj9oRbfzUP2B1BUHPAl-62" value="thống báo xóa thành công" style="rounded=0;whiteSpace=wrap;html=1;" parent="1c1d494c118603dd-3" vertex="1">
          <mxGeometry x="12.5" y="900" width="87.5" height="60" as="geometry" />
        </mxCell>
        <mxCell id="sxj9oRbfzUP2B1BUHPAl-46" value="hiển thị form chọn yes/no" style="rounded=0;whiteSpace=wrap;html=1;" parent="1c1d494c118603dd-3" vertex="1">
          <mxGeometry x="30" y="660" width="85" height="60" as="geometry" />
        </mxCell>
        <mxCell id="60571a20871a0731-3" value="Hiển thị form sửa đơn hàng" style="whiteSpace=wrap;html=1;rounded=0;shadow=0;comic=0;labelBackgroundColor=none;strokeWidth=1;fontFamily=Verdana;fontSize=12;align=center;rotation=0;" parent="1c1d494c118603dd-3" vertex="1">
          <mxGeometry x="30" y="140" width="147" height="30" as="geometry" />
        </mxCell>
        <mxCell id="sxj9oRbfzUP2B1BUHPAl-8" value="thông báo không hợp lệ" style="rounded=0;whiteSpace=wrap;html=1;" parent="1c1d494c118603dd-3" vertex="1">
          <mxGeometry x="70" y="270" width="100" height="40" as="geometry" />
        </mxCell>
        <mxCell id="sxj9oRbfzUP2B1BUHPAl-23" value="hiển thị form chọn yes/no" style="rounded=0;whiteSpace=wrap;html=1;" parent="1c1d494c118603dd-3" vertex="1">
          <mxGeometry x="70" y="350" width="100" height="60" as="geometry" />
        </mxCell>
        <mxCell id="sxj9oRbfzUP2B1BUHPAl-38" value="thông báo sửa thành công" style="rounded=0;whiteSpace=wrap;html=1;" parent="1c1d494c118603dd-3" vertex="1">
          <mxGeometry x="75" y="590" width="120" height="60" as="geometry" />
        </mxCell>
        <mxCell id="60571a20871a0731-5" value="" style="shape=mxgraph.bpmn.shape;html=1;verticalLabelPosition=bottom;labelBackgroundColor=#ffffff;verticalAlign=top;perimeter=ellipsePerimeter;outline=end;symbol=terminate;rounded=0;shadow=0;comic=0;strokeWidth=1;fontFamily=Verdana;fontSize=12;align=center;" parent="1c1d494c118603dd-3" vertex="1">
          <mxGeometry x="115" y="980" width="40" height="40" as="geometry" />
        </mxCell>
        <mxCell id="sxj9oRbfzUP2B1BUHPAl-40" value="" style="endArrow=classic;html=1;exitX=0.5;exitY=1;exitDx=0;exitDy=0;entryX=0.5;entryY=0;entryDx=0;entryDy=0;" parent="1c1d494c118603dd-3" source="sxj9oRbfzUP2B1BUHPAl-38" target="60571a20871a0731-5" edge="1">
          <mxGeometry width="50" height="50" relative="1" as="geometry">
            <mxPoint x="60" y="780" as="sourcePoint" />
            <mxPoint x="135" y="900" as="targetPoint" />
          </mxGeometry>
        </mxCell>
        <mxCell id="1c1d494c118603dd-4" value="Hệ thống" style="swimlane;html=1;startSize=20;" parent="1c1d494c118603dd-1" vertex="1">
          <mxGeometry x="500" y="20" width="250" height="1030" as="geometry" />
        </mxCell>
        <mxCell id="sxj9oRbfzUP2B1BUHPAl-36" value="có" style="text;html=1;align=center;verticalAlign=middle;resizable=0;points=[];autosize=1;" parent="1c1d494c118603dd-4" vertex="1">
          <mxGeometry x="60" y="560" width="30" height="20" as="geometry" />
        </mxCell>
        <mxCell id="sxj9oRbfzUP2B1BUHPAl-21" value="thực hiện sửa và lưu và cơ sở dữ liệu" style="rounded=0;whiteSpace=wrap;html=1;" parent="1c1d494c118603dd-4" vertex="1">
          <mxGeometry x="35" y="590" width="120" height="60" as="geometry" />
        </mxCell>
        <mxCell id="sxj9oRbfzUP2B1BUHPAl-29" value="" style="rhombus;whiteSpace=wrap;html=1;" parent="1c1d494c118603dd-4" vertex="1">
          <mxGeometry x="55" y="500" width="80" height="50" as="geometry" />
        </mxCell>
        <mxCell id="sxj9oRbfzUP2B1BUHPAl-5" value="" style="rhombus;whiteSpace=wrap;html=1;" parent="1c1d494c118603dd-4" vertex="1">
          <mxGeometry x="55" y="280" width="80" height="35" as="geometry" />
        </mxCell>
        <mxCell id="sxj9oRbfzUP2B1BUHPAl-7" value="" style="endArrow=classic;html=1;exitX=0.5;exitY=1;exitDx=0;exitDy=0;" parent="1c1d494c118603dd-4" edge="1">
          <mxGeometry width="50" height="50" relative="1" as="geometry">
            <mxPoint x="95" y="238" as="sourcePoint" />
            <mxPoint x="95" y="280" as="targetPoint" />
          </mxGeometry>
        </mxCell>
        <mxCell id="sxj9oRbfzUP2B1BUHPAl-30" value="" style="endArrow=classic;html=1;exitX=0.5;exitY=1;exitDx=0;exitDy=0;entryX=0.5;entryY=0;entryDx=0;entryDy=0;" parent="1c1d494c118603dd-4" source="sxj9oRbfzUP2B1BUHPAl-28" target="sxj9oRbfzUP2B1BUHPAl-29" edge="1">
          <mxGeometry width="50" height="50" relative="1" as="geometry">
            <mxPoint x="-190" y="400" as="sourcePoint" />
            <mxPoint x="-140" y="350" as="targetPoint" />
          </mxGeometry>
        </mxCell>
        <mxCell id="sxj9oRbfzUP2B1BUHPAl-35" value="" style="endArrow=classic;html=1;exitX=0.5;exitY=1;exitDx=0;exitDy=0;entryX=0.5;entryY=0;entryDx=0;entryDy=0;" parent="1c1d494c118603dd-4" source="sxj9oRbfzUP2B1BUHPAl-29" target="sxj9oRbfzUP2B1BUHPAl-21" edge="1">
          <mxGeometry width="50" height="50" relative="1" as="geometry">
            <mxPoint x="-190" y="730" as="sourcePoint" />
            <mxPoint x="-140" y="680" as="targetPoint" />
          </mxGeometry>
        </mxCell>
        <mxCell id="sxj9oRbfzUP2B1BUHPAl-28" value="kiểm tra có đồng ý sửa không" style="rounded=0;whiteSpace=wrap;html=1;" parent="1c1d494c118603dd-4" vertex="1">
          <mxGeometry x="42.5" y="420" width="105" height="60" as="geometry" />
        </mxCell>
        <mxCell id="sxj9oRbfzUP2B1BUHPAl-50" value="kiểm tra có đồng ý xóa không" style="rounded=0;whiteSpace=wrap;html=1;" parent="1c1d494c118603dd-4" vertex="1">
          <mxGeometry x="70" y="720" width="120" height="60" as="geometry" />
        </mxCell>
        <mxCell id="sxj9oRbfzUP2B1BUHPAl-51" value="" style="rhombus;whiteSpace=wrap;html=1;" parent="1c1d494c118603dd-4" vertex="1">
          <mxGeometry x="90" y="800" width="80" height="40" as="geometry" />
        </mxCell>
        <mxCell id="sxj9oRbfzUP2B1BUHPAl-52" value="" style="endArrow=classic;html=1;exitX=0.5;exitY=1;exitDx=0;exitDy=0;entryX=0.5;entryY=0;entryDx=0;entryDy=0;" parent="1c1d494c118603dd-4" source="sxj9oRbfzUP2B1BUHPAl-50" target="sxj9oRbfzUP2B1BUHPAl-51" edge="1">
          <mxGeometry width="50" height="50" relative="1" as="geometry">
            <mxPoint x="-190" y="810" as="sourcePoint" />
            <mxPoint x="-140" y="760" as="targetPoint" />
          </mxGeometry>
        </mxCell>
        <mxCell id="sxj9oRbfzUP2B1BUHPAl-57" value="thực hiện xóa và lưu vào cơ sở dữ liệu" style="rounded=0;whiteSpace=wrap;html=1;" parent="1c1d494c118603dd-4" vertex="1">
          <mxGeometry x="110" y="870" width="120" height="60" as="geometry" />
        </mxCell>
        <mxCell id="w1o0xXuSSVsUYX1eWn13-2" value="kiểm tra thông tin nhập" style="rounded=0;whiteSpace=wrap;html=1;" vertex="1" parent="1c1d494c118603dd-4">
          <mxGeometry x="45" y="210" width="115" height="30" as="geometry" />
        </mxCell>
        <mxCell id="sxj9oRbfzUP2B1BUHPAl-10" value="" style="endArrow=classic;html=1;exitX=0.5;exitY=1;exitDx=0;exitDy=0;entryX=1;entryY=0.5;entryDx=0;entryDy=0;" parent="1c1d494c118603dd-1" source="sxj9oRbfzUP2B1BUHPAl-5" target="sxj9oRbfzUP2B1BUHPAl-23" edge="1">
          <mxGeometry width="50" height="50" relative="1" as="geometry">
            <mxPoint x="590" y="380" as="sourcePoint" />
            <mxPoint x="595" y="430" as="targetPoint" />
            <Array as="points">
              <mxPoint x="595" y="400" />
            </Array>
          </mxGeometry>
        </mxCell>
        <mxCell id="sxj9oRbfzUP2B1BUHPAl-24" value="" style="endArrow=classic;html=1;exitX=0;exitY=0.5;exitDx=0;exitDy=0;entryX=1;entryY=0.5;entryDx=0;entryDy=0;" parent="1c1d494c118603dd-1" source="sxj9oRbfzUP2B1BUHPAl-23" target="sxj9oRbfzUP2B1BUHPAl-25" edge="1">
          <mxGeometry width="50" height="50" relative="1" as="geometry">
            <mxPoint x="310" y="350" as="sourcePoint" />
            <mxPoint x="190" y="430" as="targetPoint" />
          </mxGeometry>
        </mxCell>
        <mxCell id="sxj9oRbfzUP2B1BUHPAl-27" value="" style="endArrow=classic;html=1;exitX=0.5;exitY=1;exitDx=0;exitDy=0;entryX=0;entryY=0.5;entryDx=0;entryDy=0;" parent="1c1d494c118603dd-1" source="sxj9oRbfzUP2B1BUHPAl-25" target="sxj9oRbfzUP2B1BUHPAl-28" edge="1">
          <mxGeometry width="50" height="50" relative="1" as="geometry">
            <mxPoint x="310" y="550" as="sourcePoint" />
            <mxPoint x="540" y="510" as="targetPoint" />
            <Array as="points">
              <mxPoint x="138" y="470" />
            </Array>
          </mxGeometry>
        </mxCell>
        <mxCell id="sxj9oRbfzUP2B1BUHPAl-45" value="" style="endArrow=classic;html=1;exitX=1;exitY=0.5;exitDx=0;exitDy=0;" parent="1c1d494c118603dd-1" source="sxj9oRbfzUP2B1BUHPAl-43" target="sxj9oRbfzUP2B1BUHPAl-46" edge="1">
          <mxGeometry width="50" height="50" relative="1" as="geometry">
            <mxPoint x="310" y="800" as="sourcePoint" />
            <mxPoint x="270" y="770" as="targetPoint" />
          </mxGeometry>
        </mxCell>
        <mxCell id="sxj9oRbfzUP2B1BUHPAl-49" value="" style="endArrow=classic;html=1;exitX=1;exitY=0.75;exitDx=0;exitDy=0;" parent="1c1d494c118603dd-1" source="sxj9oRbfzUP2B1BUHPAl-48" target="sxj9oRbfzUP2B1BUHPAl-50" edge="1">
          <mxGeometry width="50" height="50" relative="1" as="geometry">
            <mxPoint x="310" y="740" as="sourcePoint" />
            <mxPoint x="590" y="770" as="targetPoint" />
            <Array as="points">
              <mxPoint x="540" y="805" />
              <mxPoint x="540" y="770" />
            </Array>
          </mxGeometry>
        </mxCell>
        <mxCell id="sxj9oRbfzUP2B1BUHPAl-53" value="" style="endArrow=classic;html=1;exitX=0;exitY=0.5;exitDx=0;exitDy=0;entryX=0;entryY=0.75;entryDx=0;entryDy=0;" parent="1c1d494c118603dd-1" source="sxj9oRbfzUP2B1BUHPAl-51" target="sxj9oRbfzUP2B1BUHPAl-43" edge="1">
          <mxGeometry width="50" height="50" relative="1" as="geometry">
            <mxPoint x="310" y="830" as="sourcePoint" />
            <mxPoint x="50" y="780" as="targetPoint" />
            <Array as="points">
              <mxPoint x="590" y="900" />
              <mxPoint x="50" y="900" />
              <mxPoint x="50" y="785" />
              <mxPoint x="50" y="725" />
            </Array>
          </mxGeometry>
        </mxCell>
        <mxCell id="sxj9oRbfzUP2B1BUHPAl-47" value="" style="endArrow=classic;html=1;exitX=0.5;exitY=1;exitDx=0;exitDy=0;entryX=1;entryY=0.5;entryDx=0;entryDy=0;" parent="1c1d494c118603dd-1" source="sxj9oRbfzUP2B1BUHPAl-46" target="sxj9oRbfzUP2B1BUHPAl-48" edge="1">
          <mxGeometry width="50" height="50" relative="1" as="geometry">
            <mxPoint x="310" y="700" as="sourcePoint" />
            <mxPoint x="210" y="840" as="targetPoint" />
            <Array as="points">
              <mxPoint x="323" y="790" />
            </Array>
          </mxGeometry>
        </mxCell>
        <mxCell id="sxj9oRbfzUP2B1BUHPAl-64" value="" style="endArrow=classic;html=1;exitX=0;exitY=0.75;exitDx=0;exitDy=0;entryX=1;entryY=0.25;entryDx=0;entryDy=0;" parent="1c1d494c118603dd-1" source="sxj9oRbfzUP2B1BUHPAl-57" target="sxj9oRbfzUP2B1BUHPAl-62" edge="1">
          <mxGeometry width="50" height="50" relative="1" as="geometry">
            <mxPoint x="310" y="870" as="sourcePoint" />
            <mxPoint x="360" y="820" as="targetPoint" />
          </mxGeometry>
        </mxCell>
        <mxCell id="sxj9oRbfzUP2B1BUHPAl-32" value="" style="endArrow=classic;html=1;exitX=0;exitY=0.5;exitDx=0;exitDy=0;entryX=0;entryY=0.5;entryDx=0;entryDy=0;" parent="1c1d494c118603dd-1" source="sxj9oRbfzUP2B1BUHPAl-29" edge="1">
          <mxGeometry width="50" height="50" relative="1" as="geometry">
            <mxPoint x="310" y="420" as="sourcePoint" />
            <mxPoint x="70" y="175" as="targetPoint" />
            <Array as="points">
              <mxPoint x="40" y="540" />
              <mxPoint x="40" y="175" />
            </Array>
          </mxGeometry>
        </mxCell>
        <mxCell id="sxj9oRbfzUP2B1BUHPAl-9" value="không hợp lệ" style="text;html=1;align=center;verticalAlign=middle;resizable=0;points=[];autosize=1;" parent="1" vertex="1">
          <mxGeometry x="505" y="360" width="90" height="20" as="geometry" />
        </mxCell>
        <mxCell id="sxj9oRbfzUP2B1BUHPAl-11" value="hợp lệ" style="text;html=1;align=center;verticalAlign=middle;resizable=0;points=[];autosize=1;" parent="1" vertex="1">
          <mxGeometry x="565" y="420" width="50" height="20" as="geometry" />
        </mxCell>
        <mxCell id="sxj9oRbfzUP2B1BUHPAl-37" value="không" style="text;html=1;align=center;verticalAlign=middle;resizable=0;points=[];autosize=1;" parent="1" vertex="1">
          <mxGeometry x="545" y="620" width="50" height="20" as="geometry" />
        </mxCell>
        <mxCell id="sxj9oRbfzUP2B1BUHPAl-39" value="" style="endArrow=classic;html=1;entryX=1;entryY=0.5;entryDx=0;entryDy=0;" parent="1" target="sxj9oRbfzUP2B1BUHPAl-38" edge="1">
          <mxGeometry width="50" height="50" relative="1" as="geometry">
            <mxPoint x="570" y="710" as="sourcePoint" />
            <mxPoint x="400" y="720" as="targetPoint" />
          </mxGeometry>
        </mxCell>
        <mxCell id="sxj9oRbfzUP2B1BUHPAl-41" value="" style="endArrow=classic;html=1;exitX=0;exitY=0.5;exitDx=0;exitDy=0;" parent="1" source="60571a20871a0731-4" edge="1">
          <mxGeometry width="50" height="50" relative="1" as="geometry">
            <mxPoint x="350" y="370" as="sourcePoint" />
            <mxPoint x="50" y="160" as="targetPoint" />
          </mxGeometry>
        </mxCell>
        <mxCell id="sxj9oRbfzUP2B1BUHPAl-54" value="không" style="text;html=1;align=center;verticalAlign=middle;resizable=0;points=[];autosize=1;" parent="1" vertex="1">
          <mxGeometry x="585" y="920" width="50" height="20" as="geometry" />
        </mxCell>
        <mxCell id="sxj9oRbfzUP2B1BUHPAl-55" value="" style="endArrow=classic;html=1;exitX=0.5;exitY=1;exitDx=0;exitDy=0;" parent="1" source="sxj9oRbfzUP2B1BUHPAl-51" edge="1">
          <mxGeometry width="50" height="50" relative="1" as="geometry">
            <mxPoint x="350" y="900" as="sourcePoint" />
            <mxPoint x="670" y="960" as="targetPoint" />
          </mxGeometry>
        </mxCell>
        <mxCell id="sxj9oRbfzUP2B1BUHPAl-56" value="có" style="text;html=1;align=center;verticalAlign=middle;resizable=0;points=[];autosize=1;" parent="1" vertex="1">
          <mxGeometry x="665" y="920" width="30" height="20" as="geometry" />
        </mxCell>
        <mxCell id="sxj9oRbfzUP2B1BUHPAl-59" style="edgeStyle=orthogonalEdgeStyle;rounded=0;orthogonalLoop=1;jettySize=auto;html=1;exitX=1;exitY=1;exitDx=0;exitDy=0;" parent="1" source="1c1d494c118603dd-4" edge="1">
          <mxGeometry relative="1" as="geometry">
            <mxPoint x="790" y="1100" as="targetPoint" />
          </mxGeometry>
        </mxCell>
        <mxCell id="sxj9oRbfzUP2B1BUHPAl-60" style="edgeStyle=orthogonalEdgeStyle;rounded=0;orthogonalLoop=1;jettySize=auto;html=1;exitX=0;exitY=1;exitDx=0;exitDy=0;" parent="1" source="1c1d494c118603dd-4" edge="1">
          <mxGeometry relative="1" as="geometry">
            <mxPoint x="540" y="1100" as="targetPoint" />
          </mxGeometry>
        </mxCell>
        <mxCell id="sxj9oRbfzUP2B1BUHPAl-63" value="" style="endArrow=classic;html=1;exitX=0.5;exitY=1;exitDx=0;exitDy=0;" parent="1" source="sxj9oRbfzUP2B1BUHPAl-62" edge="1">
          <mxGeometry width="50" height="50" relative="1" as="geometry">
            <mxPoint x="350" y="940" as="sourcePoint" />
            <mxPoint x="400" y="1090" as="targetPoint" />
            <Array as="points">
              <mxPoint x="346" y="1090" />
            </Array>
          </mxGeometry>
        </mxCell>
      </root>
    </mxGraphModel>
  </diagram>
</mxfile>
